<svg xmlns="http://www.w3.org/2000/svg" viewBox="0 0 20.02 20.02">
  <defs>
    <style>
      .cls-1 {
        fill: #231f20;
      }
    </style>
  </defs>
  <title>font-04-social-ig</title>
  <g id="Calque_2" data-name="Calque 2">
    <g id="Top_Navigation" data-name="Top Navigation">
      <path class="cls-1" d="M10,0C7.29,0,7,0,5.88.06A7.65,7.65,0,0,0,3.45.52,4.94,4.94,0,0,0,1.68,1.68,4.78,4.78,0,0,0,.53,3.45,7.35,7.35,0,0,0,.06,5.88C0,7,0,7.29,0,10s0,3.06.06,4.12a7.24,7.24,0,0,0,.47,2.43,4.81,4.81,0,0,0,1.15,1.78,5,5,0,0,0,1.77,1.15A7.35,7.35,0,0,0,5.88,20C7,20,7.29,20,10,20s3.06,0,4.12-.06a7.24,7.24,0,0,0,2.43-.47,5.08,5.08,0,0,0,1.78-1.15,4.94,4.94,0,0,0,1.15-1.78A7.24,7.24,0,0,0,20,14.13c0-1.06.06-1.4.06-4.12S20,7,20,5.88a7.35,7.35,0,0,0-.47-2.43,4.91,4.91,0,0,0-1.15-1.77A5,5,0,0,0,16.56.52,7.53,7.53,0,0,0,14.13.06C13.07,0,12.73,0,10,0m0,1.8c2.67,0,3,0,4,.06a5.54,5.54,0,0,1,1.86.35A3,3,0,0,1,17.06,3a3.23,3.23,0,0,1,.75,1.15A5.47,5.47,0,0,1,18.15,6c.05,1.06.06,1.38.06,4.05s0,3-.06,4a5.35,5.35,0,0,1-.34,1.86,3.33,3.33,0,0,1-1.9,1.9,5.35,5.35,0,0,1-1.86.34c-1.05.05-1.37.06-4,.06s-3,0-4-.06a5.34,5.34,0,0,1-1.85-.34A3.06,3.06,0,0,1,3,17.06a3.06,3.06,0,0,1-.75-1.15,5.54,5.54,0,0,1-.35-1.86C1.81,13,1.8,12.68,1.8,10s0-3,.06-4A5.66,5.66,0,0,1,2.21,4.1,3.23,3.23,0,0,1,3,3a3,3,0,0,1,1.15-.74A5.52,5.52,0,0,1,6,1.86C7,1.81,7.34,1.8,10,1.8"/>
      <path class="cls-1" d="M10,13.34A3.34,3.34,0,1,1,13.34,10,3.34,3.34,0,0,1,10,13.34m0-8.47A5.14,5.14,0,1,0,15.15,10,5.14,5.14,0,0,0,10,4.87"/>
      <path class="cls-1" d="M16.55,4.67a1.2,1.2,0,1,1-1.2-1.21,1.2,1.2,0,0,1,1.2,1.21"/>
    </g>
  </g>
</svg>
