<svg xmlns="http://www.w3.org/2000/svg" viewBox="0 0 20.33 16.52">
  <defs>
    <style>
      .cls-1 {
        fill: #231f20;
      }
    </style>
  </defs>
  <title>font-03-social-tt</title>
  <g id="Calque_2" data-name="Calque 2">
    <g id="Top_Navigation" data-name="Top Navigation">
      <path class="cls-1" d="M6.39,16.52A11.78,11.78,0,0,0,18.26,4.66c0-.19,0-.36,0-.54A8.71,8.71,0,0,0,20.33,2a8.37,8.37,0,0,1-2.39.65A4.15,4.15,0,0,0,19.77.31a8.66,8.66,0,0,1-2.65,1A4.17,4.17,0,0,0,10,5.12,11.79,11.79,0,0,1,1.42.76,4.16,4.16,0,0,0,2.71,6.33,4.14,4.14,0,0,1,.82,5.81v.05A4.16,4.16,0,0,0,4.16,10a4,4,0,0,1-1.1.15A4.92,4.92,0,0,1,2.28,10a4.17,4.17,0,0,0,3.9,2.89A8.39,8.39,0,0,1,1,14.71a8.22,8.22,0,0,1-1-.06,11.84,11.84,0,0,0,6.39,1.87"/>
    </g>
  </g>
</svg>
