<svg xmlns="http://www.w3.org/2000/svg" viewBox="0 0 20.02 20.02">
  <defs>
    <style>
      .cls-1 {
        fill: #231f20;
      }
    </style>
  </defs>
  <title>font-02-social-fb</title>
  <g id="Calque_2" data-name="Calque 2">
    <g id="Top_Navigation" data-name="Top Navigation">
      <path class="cls-1" d="M18.91,0H1.1A1.1,1.1,0,0,0,0,1.11v17.8A1.11,1.11,0,0,0,1.1,20h9.59V12.27H8.08v-3h2.61V7a3.64,3.64,0,0,1,3.89-4c1.1,0,2,.09,2.33.12v2.7h-1.6c-1.26,0-1.5.59-1.5,1.47V9.24h3l-.39,3h-2.6V20h5.1A1.11,1.11,0,0,0,20,18.91V1.11A1.11,1.11,0,0,0,18.91,0Z"/>
    </g>
  </g>
</svg>
