<svg xmlns="http://www.w3.org/2000/svg" xmlns:xlink="http://www.w3.org/1999/xlink" viewBox="0 0 52.8 39.67">
  <defs>
    <style>
      .cls-1 {
        fill: none;
      }

      .cls-2 {
        clip-path: url(#clip-path);
      }

      .cls-3 {
        fill: #d9172d;
      }

      .cls-4 {
        fill: #62666d;
      }
    </style>
    <clipPath id="clip-path" transform="translate(-6.75 -5.67)">
      <rect class="cls-1" width="66" height="50.41"/>
    </clipPath>
  </defs>
  <title>font-01-logocorian</title>
  <g id="Calque_2" data-name="Calque 2">
    <g id="Top_Navigation" data-name="Top Navigation">
      <g class="cls-2">
        <polygon class="cls-3" points="41.92 35.7 41.92 38.09 7.85 38.09 7.85 35.7 6.26 35.7 6.26 39.67 43.51 39.67 43.51 35.7 41.92 35.7"/>
        <polygon class="cls-3" points="7.85 3.97 7.85 1.58 41.92 1.58 41.92 3.97 43.51 3.97 43.51 0 6.26 0 6.26 3.97 7.85 3.97"/>
        <g class="cls-2">
          <path class="cls-4" d="M16.34,31.45a1.89,1.89,0,0,1-2.13,2H13v-4h1.2a1.88,1.88,0,0,1,2.13,2M13.56,30v2.94h.63a1.47,1.47,0,1,0,0-2.94Z" transform="translate(-6.75 -5.67)"/>
          <polygon class="cls-4" points="16.41 24.31 14.51 24.31 14.51 25.52 16.18 25.52 16.18 26.01 14.51 26.01 14.51 27.26 16.45 27.26 16.45 27.77 13.96 27.77 13.96 23.81 16.41 23.81 16.41 24.31"/>
          <path class="cls-4" d="M30.55,29.83l-.27.47a1.69,1.69,0,0,0-1.05-.39c-.44,0-.76.19-.76.62s.2.5.87.64c1,.21,1.32.52,1.32,1.13s-.54,1.21-1.41,1.21A2.12,2.12,0,0,1,27.8,33l.31-.46a1.69,1.69,0,0,0,1.15.47c.5,0,.85-.23.85-.66s-.26-.53-.93-.67c-1-.21-1.26-.53-1.26-1.12a1.17,1.17,0,0,1,1.31-1.15,2.19,2.19,0,0,1,1.32.42" transform="translate(-6.75 -5.67)"/>
          <rect class="cls-4" x="28.32" y="23.81" width="0.55" height="3.96"/>
          <path class="cls-4" d="M43,30l-.35.4a1.43,1.43,0,0,0-2.49,1.08A1.45,1.45,0,0,0,41.6,33a1.53,1.53,0,0,0,.9-.28v-.89h-1v-.48h1.56V33a2.08,2.08,0,0,1-1.45.52,2,2,0,0,1-2.05-2,2,2,0,0,1,2-2.05A1.88,1.88,0,0,1,43,30" transform="translate(-6.75 -5.67)"/>
          <polygon class="cls-4" points="42.96 26.46 42.96 23.81 43.51 23.81 43.51 27.84 43.49 27.84 41.01 25.11 41.01 27.77 40.46 27.77 40.46 23.74 40.48 23.74 42.96 26.46"/>
          <path class="cls-3" d="M24.48,21.54a4,4,0,1,1-7.91,0,4,4,0,1,1,7.91,0m-7.09,0a3.14,3.14,0,1,0,6.26,0,3.14,3.14,0,1,0-6.26,0m19.81,4h-.81V17.57h.81Zm-4.81,0h1L31.3,22.23A2.22,2.22,0,0,0,33,20c0-1.56-1.17-2.41-2.79-2.41H27.82v7.94h.82v-7.2h1.5c1.22,0,2,.57,2,1.67s-.79,1.67-2,1.67H30l1.14,1.82Zm11.76-7.94H44l-3.49,7.94h.87l.8-1.86H46l.8,1.86h.88Zm1.5,5.34H42.47l1.59-3.66,1.22,2.81Zm-.37-.85.37.85Zm-1.22-2.81-1.59,3.66Zm12.16-1.68H55.4v6l-5-6h-.16v7.94h.81v-6l5,6h.16ZM12.9,24a3.1,3.1,0,0,1-2.2.91h-.23a3,3,0,0,1-2.2-1.14,3.56,3.56,0,0,1-.7-2.19h0a3.52,3.52,0,0,1,.7-2.19,3,3,0,0,1,2.2-1.13h.23a3.08,3.08,0,0,1,2.2.9l.11.12.52-.61a.23.23,0,0,0-.07-.07,3.72,3.72,0,0,0-2.76-1.11h-.23A3.81,3.81,0,0,0,7.7,18.77a4.25,4.25,0,0,0-1,2.76h0a4.23,4.23,0,0,0,1,2.76,3.79,3.79,0,0,0,2.77,1.34h.23a3.76,3.76,0,0,0,2.76-1.12v0L13,23.92l0,0" transform="translate(-6.75 -5.67)"/>
          <path class="cls-3" d="M58.26,18.35c.2,0,.33.09.33.27s-.13.26-.33.26H58v-.53Zm-.47-.2v1.47H58v-.54h.27l.34.54h.26L58.51,19a.44.44,0,0,0,.3-.43.47.47,0,0,0-.53-.46Zm.49-.37a1.11,1.11,0,1,1-1.05,1.11,1.05,1.05,0,0,1,1.05-1.11m0-.21a1.32,1.32,0,1,0,1.27,1.32,1.26,1.26,0,0,0-1.27-1.32" transform="translate(-6.75 -5.67)"/>
        </g>
      </g>
    </g>
  </g>
</svg>
